/* XPM */
static const char * b_erase_xpm[] = {
"22 22 8 1",
" 	c None",
".	c #0C0C0C",
"+	c #191919",
"@	c #000000",
"#	c #FF0000",
"$	c #0000FF",
"%	c #FFFF00",
"&	c #00FF00",
".++++++++++++++++++++@",
".##########$$$$$$$$$$@",
".##########$$$$$$$$$$@",
".##########$$$$$$$$$$@",
".###@@#####$$$$$@@$$$@",
".###@@@####$$$$@@@$$$@",
".####@@@###$$$@@@$$$$@",
".#####@@@##$$@@@$$$$$@",
".######@@@#$@@@$$$$$$@",
".#######@@@@@@$$$$$$$@",
".########@@@@$$$$$$$$@",
".%%%%%%%%@@@@&&&&&&&&@",
".%%%%%%%@@@@@@&&&&&&&@",
".%%%%%%@@@%&@@@&&&&&&@",
".%%%%%@@@%%&&@@@&&&&&@",
".%%%%@@@%%%&&&@@@&&&&@",
".%%%@@@%%%%&&&&@@@&&&@",
".%%%@@%%%%%&&&&&@@&&&@",
".%%%%%%%%%%&&&&&&&&&&@",
".%%%%%%%%%%&&&&&&&&&&@",
".%%%%%%%%%%&&&&&&&&&&@",
"@@@@@@@@@@@@@@@@@@@@@@"};
