/* XPM */
static const char * b_fill_xpm[] = {
"22 22 5 1",
" 	c #0C0C0C",
".	c #191919",
"+	c #000000",
"@	c #FFFFFF",
"#	c #FF0000",
" ....................+",
" @@@@@@@@@@@@@@@@@@@@+",
" @@@@@@@@@@@@@@@@@@@@+",
" @@@@@@@@@++++++@@@@@+",
" @@@@@@@@++@@@@+@@@@@+",
" @@@@@@@+@@@@@@+@@@@@+",
" @@@@@@+++@@@@@+@@@@@+",
" @@@@@+++++@@@@+@@@@@+",
" @@@@+++++++@##+#@@@@+",
" @@@++++++++#####@@@@+",
" @@@+++++++++#####@@@+",
" @@+++++++++++####@@@+",
" @@+++++++++++@####@@+",
" @+++++++++++@@####@@+",
" @@+++++++++@@@####@@+",
" @@@++++++@@@@#####@@+",
" @@@@++++@@@########@+",
" @@@@@+@@@@#########@+",
" @@@@@@@@@@#########@+",
" @@@@@@@@@@@########@+",
" @@@@@@@@@@@@@@@@@@@@+",
"++++++++++++++++++++++"};
