/* XPM */
static const char * b_origin_xpm[] = {
"22 22 6 1",
" 	c None",
".	c #0C0C0C",
"+	c #191919",
"@	c #000000",
"#	c #FFFFFF",
"$	c #FF0000",
".++++++++++++++++++++@",
".####################@",
".####################@",
".####################@",
".##########@#########@",
".##########@#########@",
".##########@#########@",
".##########@#########@",
".##########@#########@",
".##########@#########@",
".##########@#########@",
".##########@#########@",
".#########$$$########@",
".########$#@#$#######@",
".###@@@@@$@@@$@@@@@##@",
".########$#@#$#######@",
".#########$$$########@",
".##########@#########@",
".##########@#########@",
".##########@#########@",
".####################@",
"@@@@@@@@@@@@@@@@@@@@@@"};
