/* XPM */
static char * job image_xpm[] = {
"110 85 67 1",
" 	c #FFFFFF",
".	c #A0A0A0",
"+	c #686868",
"@	c #C0C0C0",
"#	c #F8F8F8",
"$	c #E8E8E8",
"%	c #3C3C3C",
"&	c #2C2C2C",
"*	c #000000",
"=	c #080808",
"-	c #707070",
";	c #A4A4A4",
">	c #ECECEC",
",	c #383838",
"'	c #848484",
")	c #CCCCCC",
"!	c #FCFCFC",
"~	c #606060",
"{	c #303030",
"]	c #040404",
"^	c #5C5C5C",
"/	c #8C8C8C",
"(	c #B8B8B8",
"_	c #F0F0F0",
":	c #505050",
"<	c #1C1C1C",
"[	c #646464",
"}	c #9C9C9C",
"|	c #D4D4D4",
"1	c #B4B4B4",
"2	c #181818",
"3	c #242424",
"4	c #787878",
"5	c #A8A8A8",
"6	c #BCBCBC",
"7	c #909090",
"8	c #101010",
"9	c #343434",
"0	c #585858",
"a	c #E0E0E0",
"b	c #D8D8D8",
"c	c #ACACAC",
"d	c #808080",
"e	c #202020",
"f	c #949494",
"g	c #747474",
"h	c #0C0C0C",
"i	c #404040",
"j	c #D0D0D0",
"k	c #B0B0B0",
"l	c #888888",
"m	c #DCDCDC",
"n	c #6C6C6C",
"o	c #484848",
"p	c #545454",
"q	c #989898",
"r	c #E4E4E4",
"s	c #444444",
"t	c #7C7C7C",
"u	c #C4C4C4",
"v	c #C5C5C5",
"w	c #141414",
"x	c #282828",
"y	c #F4F4F4",
"z	c #4C4C4C",
"A	c #C8C8C8",
"B	c #3F3F3F",
"                                                                                                              ",
"                                                                                                              ",
"                                                                                                              ",
"                                                                                                              ",
"                                                                                                              ",
"                                                                                                              ",
"                                                                                                              ",
"                                                                                                              ",
"                                                                                                              ",
"                                                                                                              ",
"                                                                                                              ",
"                                                                                                              ",
"                                                                                                              ",
"                                                                                                              ",
"              .+@#                                                                                            ",
"           $%&***=%-;>                                                                                        ",
"           +**********,')!                                                                                    ",
"           ~**{=*********]{^/(_                                                                               ",
"           ~**~#@':<***********&[}|                                                                           ",
"           ~**~     >1':2**********3:45)_                                                                     ",
"           ~**~          >67~{=**********8904}6a                                                              ",
"           ~**~                bcd::92***********e:'1a                                                        ",
"           ~**~                       #b1fg:{h*********ei^d.@a                                                ",
"           ~**~                               _jk7-:{8*********ei[lc@@@@@@@m_                                 ",
"           ~**~                                       _jc7-:{8****************e{iiiiiiiii.                    ",
"           n**[                                               _jk/+ieeeeeeee*************o                    ",
"           n**[                                                              _a@k........a                    ",
"           d**d                                                                            a                  ",
"           d**d                                                                           p*p                 ",
"           d**d                                                                          a***a                ",
"           q**q                                                                          a***a                ",
"           d**d                                                                          a***a                ",
"           d**d                                                                          a***a                ",
"           l**0                                                                          a***a                ",
"           j**&                                                                          a***a                ",
"            e**                                                                          a***a                ",
"            2**                                                                          a***a                ",
"            ***                                                                          a***a                ",
"            ***                                                                          a***a                ",
"            ***!                                                                         r***)                ",
"            ***                                                                           8**f                ",
"            ***                       $%%$                                                s**+                ",
"            ]*]                       +**+                            66                  g**g                ",
"            ***                      _=**-                           .**.                 d**d                ",
"           >***>                     a***m                           ^**~                 d**d                ",
"            ***                      a***a                          #h**t                 d**d                ",
"            ***!                     a***a                          a***j                 d**d                ",
"            e*<                      a***a          !uu!            a***a                 d**d                ",
"            e*e                      a***a          n**+            a***a                 /**/                ",
"            h*h                      a***a          &***7           a***va#               .**.                ",
"            h*h                      a***a     |:eee~w***a          a*****xu              .**.                ",
"            h*h!                     a***a    |h******h**7          a******h$             .**.                ",
"            (~(             a        a***a    7*******^**o          5*******%             (**(                ",
"                           p*p!     >5***a    ~**sd0<<.**h#         .**8k-***c            @**@                ",
"                          a***paaj-x]***]>    ~**~    m***k         .**e ye**2#           @**@                ",
"                          !%************z     ~**~     3**+         7**e  @***7           @**@                ",
"                           y%**********iy     ~**^     ~**~         :**o   s**x           @**@                ",
"                            yp****=:lj        t**h#    ^**~         e**l   .***$          @**@                ",
"                              b@@@$           j***k   #h**t         e**.   a***a          @**@                ",
"                                               3**x)  a***j         e**.   a***a          )**)                ",
"                                               /***]s^h**]>         4*2a   u***a          a**a                ",
"                                                -********~           A$ .~}g**w!          a**a                ",
"                                                 q]*****py             6******+           a**a                ",
"                                                  r;^i[6               k*****2a           a**a                ",
"                                                                        d3**im            a**a                ",
"                                                                                          a**a                ",
"                                                                                          a**a                ",
"                                                                                          a**m                ",
"               !t+j                                                                       a**a                ",
"               t***:u                                                                     a**a                ",
"               -*****<-@                                                                  a**a                ",
"               y^=******edr                                                               a**a                ",
"                 $-=*******s}r                                                            a**a                ",
"                   #@di]******{tu!                                                        a**a                ",
"                       >79*******w^5y                                                     a**a                ",
"                          b7:8******]s7m                                                  a**a                ",
"                              j7zh******ep/6y                                             j**>                ",
"                                 #@49********&^7@by                                       /*x                 ",
"                                     >5~9h*********8&o[d.@@ar                             ~*~   ru.t4!        ",
"                                          a1/~9h**************=e&iiiiiiiiiiz~~~~~~~~~~~~~~3*3zx=****]$        ",
"                                                _|(}d~sxh**************************************w,^'5|         ",
"                                                           yaab@@6..................5.....:*B)_               ",
"                                                                                          l*t                 ",
"                                                                                          y5y                 ",
"                                                                                                              "};
